<svg id="Layer_1" data-name="Layer 1" xmlns="http://www.w3.org/2000/svg" viewBox="0 0 287.62 707.36"><defs><style>.cls-1{fill:#939598;}.cls-2,.cls-5{fill:none;stroke-linecap:round;stroke-miterlimit:10;}.cls-2{stroke:#808285;stroke-width:38px;}.cls-3{fill:#6d6e71;}.cls-4{fill:#808285;}.cls-5{stroke:#231f20;stroke-width:5px;}.cls-6{fill:#ee2a7b;}</style></defs><rect class="cls-1" x="522.12" y="119.46" width="65.52" height="130.09" rx="32.76" transform="translate(753.57 303.53) rotate(-180)"/><rect class="cls-1" x="412.38" y="119.46" width="65.52" height="130.09" rx="32.76" transform="translate(534.09 303.53) rotate(180)"/><path class="cls-2" d="M499.5,261.39S500,119.46,500,84.47" transform="translate(-356.19 -65.47)"/><rect class="cls-3" x="386.65" y="192.48" width="226.69" height="329.66" rx="64.54" transform="translate(643.81 649.14) rotate(180)"/><rect class="cls-1" x="356.19" y="510.14" width="287.62" height="225.17" rx="69.87" transform="translate(643.81 1179.97) rotate(180)"/><path d="M435.52,702.06h0a26.16,26.16,0,0,0,26.16-26.16v-6.53l-26.16-20.49,26.16-20.48v-6.54a26.16,26.16,0,0,0-26.16-26.16h0a26.16,26.16,0,0,0-26.16,26.16v54A26.16,26.16,0,0,0,435.52,702.06Z" transform="translate(-356.19 -65.47)"/><path d="M564.48,702.06h0a26.16,26.16,0,0,0,26.16-26.16v-6.53l-26.16-20.49,26.16-20.48v-6.54a26.16,26.16,0,0,0-26.16-26.16h0a26.16,26.16,0,0,0-26.16,26.16v54A26.16,26.16,0,0,0,564.48,702.06Z" transform="translate(-356.19 -65.47)"/><polygon class="cls-4" points="14.63 707.36 108.49 668.59 82.33 668.83 56.17 668.59 14.63 707.36"/><path class="cls-5" d="M500,571.65s-10.76-40.57-64.48-23.95" transform="translate(-356.19 -65.47)"/><path class="cls-5" d="M500,572.89S510.78,532.32,564.5,549" transform="translate(-356.19 -65.47)"/><polygon class="cls-6" points="143.81 530.23 165.91 530.23 143.81 506.17 121.71 530.23 143.81 530.23"/><rect class="cls-1" x="402.16" y="368.33" width="65.52" height="130.09" rx="32.76" transform="translate(-196.77 -180.8) rotate(18.44)"/><rect class="cls-1" x="532.72" y="368.33" width="65.52" height="130.09" rx="32.76" transform="translate(882.82 600.14) rotate(161.56)"/><polygon class="cls-4" points="272.99 707.36 179.13 668.59 205.29 668.83 231.45 668.59 272.99 707.36"/></svg>