<svg id="Layer_1" data-name="Layer 1" xmlns="http://www.w3.org/2000/svg" viewBox="0 0 357.55 675.01"><defs><style>.cls-1{fill:#939598;}.cls-2,.cls-5{fill:none;stroke-linecap:round;stroke-miterlimit:10;}.cls-2{stroke:#808285;stroke-width:38px;}.cls-3{fill:#6d6e71;}.cls-4{fill:#808285;}.cls-5{stroke:#231f20;stroke-width:5px;}.cls-6{fill:#ee2a7b;}</style></defs><rect class="cls-1" x="56.17" y="513.27" width="65.52" height="130.09" rx="32.76"/><rect class="cls-1" x="165.91" y="544.93" width="65.52" height="130.09" rx="32.76"/><path class="cls-2" d="M576.64,589.27s137.75,76.41,115.72-77.81" transform="translate(-356.19 -62.84)"/><rect class="cls-3" x="30.46" y="272.34" width="226.69" height="329.66" rx="64.54"/><rect class="cls-1" y="59.16" width="287.62" height="225.17" rx="69.87"/><path d="M564.48,155.24h0a26.16,26.16,0,0,0-26.16,26.16v6.54l26.16,20.49-26.16,20.48v6.54a26.16,26.16,0,0,0,26.16,26.16h0a26.16,26.16,0,0,0,26.16-26.16v-54A26.16,26.16,0,0,0,564.48,155.24Z" transform="translate(-356.19 -62.84)"/><path d="M435.52,155.24h0a26.16,26.16,0,0,0-26.16,26.16v6.54l26.16,20.49-26.16,20.48v6.54a26.16,26.16,0,0,0,26.16,26.16h0a26.16,26.16,0,0,0,26.16-26.16v-54A26.16,26.16,0,0,0,435.52,155.24Z" transform="translate(-356.19 -62.84)"/><polygon class="cls-4" points="205.29 0.25 179.13 60.41 205.29 60.16 231.45 60.41 205.29 0.25"/><polygon class="cls-4" points="82.33 0 56.17 60.16 82.33 59.92 108.49 60.16 82.33 0"/><path class="cls-5" d="M500,285.66s10.76,40.57,64.48,23.94" transform="translate(-356.19 -62.84)"/><path class="cls-5" d="M500,284.42S489.22,325,435.5,308.36" transform="translate(-356.19 -62.84)"/><polygon class="cls-6" points="143.81 198.77 121.71 198.77 143.81 222.82 165.91 198.77 143.81 198.77"/><rect class="cls-1" x="165.91" y="339.55" width="65.52" height="130.09" rx="32.76"/><rect class="cls-1" x="56.17" y="339.55" width="65.52" height="130.09" rx="32.76"/></svg>