<svg id="Layer_1" data-name="Layer 1" xmlns="http://www.w3.org/2000/svg" viewBox="0 0 338.02 323.73"><defs><style>.cls-1{fill:#ed1c24;}.cls-2{fill:#39b54a;}.cls-3,.cls-4{fill:none;stroke-miterlimit:10;}.cls-3{stroke:#39b54a;stroke-width:20px;}.cls-4{stroke:#fff;stroke-width:31px;}</style></defs><path class="cls-1" d="M307.82,114.91l35.24,34.35-64.3,9.35L250,216.88l-28.76-58.27-64.3-9.35,35.24-34.35C127.31,135,81,187.89,81,250c0,79.38,75.67,143.73,169,143.73S419,329.38,419,250C419,187.89,372.69,135,307.82,114.91Z" transform="translate(-80.99 -69.99)"/><path class="cls-2" d="M221.24,158.61,250,216.88l28.76-58.27,64.3-9.35-35.24-34.35a197.79,197.79,0,0,0-115.64,0l-35.24,34.35Z" transform="translate(-80.99 -69.99)"/><path class="cls-3" d="M250,131.92S230.6,80.34,283.39,80" transform="translate(-80.99 -69.99)"/><path class="cls-4" d="M156.94,173.12s-45.66,15-44.37,71.68" transform="translate(-80.99 -69.99)"/></svg>