<svg id="Layer_1" data-name="Layer 1" xmlns="http://www.w3.org/2000/svg" viewBox="0 0 287.62 35.65"><defs><style>.cls-1{fill:#939598;}.cls-2{fill:#808285;}.cls-3{fill:none;stroke:#231f20;stroke-linecap:round;stroke-miterlimit:10;stroke-width:3px;}.cls-4{fill:#ee2a7b;}</style></defs><rect class="cls-1" y="7.42" width="287.62" height="28.23" rx="14.12"/><path d="M564.48,372.2h0c-2.58,0-4.67.91-4.67,2v.51l4.67,1.59-4.67,1.6v.5c0,1.13,2.09,2,4.67,2h0c2.58,0,4.67-.91,4.67-2v-4.2C569.15,373.11,567.06,372.2,564.48,372.2Z" transform="translate(-356.19 -358.08)"/><path d="M435.52,369.66h0c5.21,0,9.43,1.47,9.43,3.28v.82l-9.43,2.57L445,378.9v.82c0,1.81-4.22,3.28-9.43,3.28h0c-5.21,0-9.43-1.47-9.43-3.28v-6.78C426.09,371.13,430.31,369.66,435.52,369.66Z" transform="translate(-356.19 -358.08)"/><polygon class="cls-2" points="205.29 0.03 179.13 7.57 205.29 7.54 231.45 7.57 205.29 0.03"/><polygon class="cls-2" points="82.33 0 56.17 7.54 82.33 7.51 108.49 7.54 82.33 0"/><path class="cls-3" d="M500,386s10.76,5.08,64.48,3" transform="translate(-356.19 -358.08)"/><path class="cls-3" d="M500,385.86s-10.76,5.09-64.48,3" transform="translate(-356.19 -358.08)"/><polygon class="cls-4" points="143.81 24.92 121.71 24.92 143.81 27.94 165.91 24.92 143.81 24.92"/></svg>