<svg id="Layer_1" data-name="Layer 1" xmlns="http://www.w3.org/2000/svg" viewBox="0 0 357.97 675.01"><defs><style>.cls-1,.cls-5{fill:none;stroke-linecap:round;stroke-miterlimit:10;}.cls-1{stroke:#808285;stroke-width:38px;}.cls-2{fill:#939598;}.cls-3{fill:#6d6e71;}.cls-4{fill:#808285;}.cls-5{stroke:#231f20;stroke-width:5px;}.cls-6{fill:#ee2a7b;}</style></defs><path class="cls-1" d="M423,589.27S285.2,665.68,307.23,511.46" transform="translate(-285.84 -62.84)"/><rect class="cls-2" x="126.52" y="544.93" width="65.52" height="130.09" rx="32.76"/><rect class="cls-2" x="236.26" y="513.27" width="65.52" height="130.09" rx="32.76"/><rect class="cls-3" x="100.81" y="272.34" width="226.69" height="329.66" rx="64.54"/><rect class="cls-2" x="70.35" y="59.16" width="287.62" height="225.17" rx="69.87"/><path d="M564.48,155.24h0a26.16,26.16,0,0,1,26.16,26.16v6.54l-26.16,20.49,26.16,20.48v6.54a26.16,26.16,0,0,1-26.16,26.16h0a26.16,26.16,0,0,1-26.16-26.16v-54A26.16,26.16,0,0,1,564.48,155.24Z" transform="translate(-285.84 -62.84)"/><path d="M435.52,155.24h0a26.16,26.16,0,0,1,26.16,26.16v6.54l-26.16,20.49,26.16,20.48v6.54a26.16,26.16,0,0,1-26.16,26.16h0a26.16,26.16,0,0,1-26.16-26.16v-54A26.16,26.16,0,0,1,435.52,155.24Z" transform="translate(-285.84 -62.84)"/><polygon class="cls-4" points="275.64 0.25 249.48 60.41 275.64 60.16 301.8 60.41 275.64 0.25"/><polygon class="cls-4" points="152.68 0 126.52 60.16 152.68 59.92 178.84 60.16 152.68 0"/><path class="cls-5" d="M500,285.66s10.76,40.57,64.48,23.94" transform="translate(-285.84 -62.84)"/><path class="cls-5" d="M500,284.42S489.22,325,435.5,308.36" transform="translate(-285.84 -62.84)"/><polygon class="cls-6" points="214.16 198.77 192.06 198.77 214.16 222.82 236.26 198.77 214.16 198.77"/><rect class="cls-2" x="236.26" y="339.55" width="65.52" height="130.09" rx="32.76"/><rect class="cls-2" x="126.52" y="339.55" width="65.52" height="130.09" rx="32.76"/></svg>